<svg width="512" height="512" viewBox="0 0 512 512" fill="none" xmlns="http://www.w3.org/2000/svg">
<g clip-path="url(#clip0_625_271)">
<path fill-rule="evenodd" clip-rule="evenodd" d="M256 512C397.385 512 512 397.385 512 256C512 114.615 397.385 0 256 0C114.615 0 0 114.615 0 256C0 397.385 114.615 512 256 512ZM231.484 426.619C235.782 428.624 240.463 429.67 245.205 429.688C250.526 429.66 255.756 428.3 260.416 425.731C265.076 423.162 269.017 419.467 271.881 414.982L364.514 265.9C368.943 259.372 371.509 251.76 371.937 243.882C372.365 236.005 370.638 228.159 366.943 221.189C363.248 214.219 357.724 208.387 350.964 204.32C344.205 200.253 336.464 198.104 328.575 198.105H291.565L315.925 133.131C318.054 127.441 318.773 121.32 318.022 115.291C317.27 109.262 315.07 103.505 311.61 98.511C308.15 93.5173 303.531 89.4357 298.15 86.6149C292.769 83.7942 286.786 82.3182 280.71 82.3131H227.258C217.916 82.2591 208.81 85.2362 201.304 90.7976C193.798 96.359 188.299 104.205 185.631 113.157L141.862 257.896C139.897 264.388 139.48 271.25 140.645 277.931C141.81 284.613 144.524 290.929 148.569 296.373C152.614 301.817 157.879 306.237 163.94 309.28C170.002 312.323 176.692 313.904 183.474 313.896H236.709L214.115 388.668C211.893 396.024 212.431 403.938 215.629 410.926C218.827 417.913 224.464 423.493 231.484 426.619ZM218.626 114.106C221.123 112.256 224.15 111.258 227.258 111.261H280.71C282.108 111.267 283.484 111.61 284.721 112.261C285.958 112.913 287.02 113.853 287.816 115.003C288.611 116.152 289.118 117.477 289.292 118.864C289.466 120.251 289.302 121.66 288.815 122.97L257.118 207.498C256.296 209.689 256.018 212.046 256.308 214.367C256.597 216.688 257.444 218.905 258.777 220.827C260.11 222.75 261.89 224.32 263.963 225.404C266.035 226.488 268.34 227.054 270.68 227.052H328.575C331.206 227.04 333.789 227.761 336.033 229.134C338.278 230.507 340.096 232.477 341.283 234.825C342.565 237.235 343.139 239.958 342.94 242.681C342.74 245.403 341.774 248.014 340.154 250.211L247.521 399.292C247.349 399.631 247.107 399.93 246.813 400.17C246.518 400.409 246.176 400.585 245.809 400.684C245.442 400.784 245.059 400.805 244.683 400.747C244.307 400.69 243.948 400.554 243.628 400.349C243.275 400.248 242.947 400.076 242.664 399.842C242.381 399.608 242.15 399.318 241.985 398.99C241.821 398.662 241.726 398.303 241.707 397.937C241.689 397.57 241.746 397.204 241.876 396.861L270.057 303.62C270.713 301.457 270.852 299.171 270.466 296.945C270.079 294.718 269.176 292.613 267.83 290.798C266.483 288.984 264.731 287.509 262.712 286.493C260.694 285.477 258.465 284.948 256.206 284.948H183.474C181.214 284.948 178.986 284.419 176.968 283.403C174.949 282.387 173.197 280.913 171.85 279.098C170.504 277.283 169.601 275.178 169.214 272.952C168.827 270.725 168.967 268.439 169.623 266.277L213.392 121.537C214.293 118.563 216.128 115.957 218.626 114.106Z" fill="black"/>
</g>
<defs>
<clipPath id="clip0_625_271">
<rect width="512" height="512" fill="white"/>
</clipPath>
</defs>
</svg>
