<svg width="512" height="513" viewBox="0 0 512 513" fill="none" xmlns="http://www.w3.org/2000/svg">
<path d="M206.848 283.124H156.16C147.968 283.124 145.408 280.052 145.408 272.372V210.42C145.408 202.228 148.48 199.668 156.16 199.668H206.848V154.612C206.848 134.132 210.432 114.676 220.672 96.7559C231.424 78.3239 246.784 66.0359 266.24 58.8679C279.04 54.2599 291.84 52.2119 305.664 52.2119H355.84C363.008 52.2119 366.08 55.2839 366.08 62.4519V120.82C366.08 127.988 363.008 131.06 355.84 131.06C342.016 131.06 328.192 131.06 314.368 131.572C300.544 131.572 293.376 138.228 293.376 152.564C292.864 167.924 293.376 182.772 293.376 198.644H352.768C360.96 198.644 364.032 201.716 364.032 209.908V271.86C364.032 280.052 361.472 282.612 352.768 282.612H293.376V449.524C293.376 458.228 290.816 461.3 281.6 461.3H217.6C209.92 461.3 206.848 458.228 206.848 450.548V283.124Z" fill="black"/>
</svg>
