<svg width="512" height="512" viewBox="0 0 512 512" fill="none" xmlns="http://www.w3.org/2000/svg">
<g clip-path="url(#clip0_2301_38)">
<path d="M184.67 411.667C181.11 412.33 179.555 414.001 180.001 416.665C180.445 419.33 182.445 420.221 186 419.33C189.56 418.443 191.114 416.884 190.667 414.664C190.225 412.221 188.225 411.219 184.67 411.667ZM165.669 414.336C162.112 414.336 160.335 415.551 160.335 418C160.335 420.889 162.226 422.108 166.001 421.664C169.558 421.664 171.337 420.442 171.337 418C171.337 415.115 169.447 413.888 165.669 414.336ZM139.669 413.328C138.782 415.774 140.227 417.437 144.002 418.33C147.335 419.657 149.447 418.993 150.334 416.329C151.002 413.887 149.557 412.114 146.002 410.995C142.667 410.109 140.558 410.876 139.669 413.328Z" fill="black"/>
<path d="M483.832 28.1641C465.054 9.3892 442.448 0 415.998 0H95.9994C69.5574 0 46.9437 9.3892 28.1641 28.1641C9.3892 46.9425 0 69.5562 0 95.9994V416.003C0 442.447 9.3892 465.059 28.1641 483.834C46.9425 502.612 69.5574 512.001 95.9994 512.001H170.666C175.551 512.001 179.22 511.833 181.664 511.506C184.106 511.17 186.549 509.724 188.995 507.166C191.442 504.613 192.661 500.89 192.661 496.003C192.661 495.339 192.602 487.776 192.493 473.333C192.379 458.885 192.325 447.442 192.325 438.996L184.657 440.331C179.769 441.218 173.602 441.609 166.157 441.497C158.715 441.385 150.991 440.61 142.992 439.164C134.989 437.718 127.547 434.386 120.657 429.168C113.771 423.941 108.883 417.11 105.993 408.667L102.659 400.996C100.437 395.89 96.9393 390.221 92.1606 384.003C87.3819 377.778 82.5496 373.555 77.6612 371.334L75.3273 369.666C73.7733 368.556 72.3291 367.217 70.9946 365.663C69.6625 364.104 68.6631 362.547 67.9964 360.996C67.3298 359.438 67.8832 358.159 69.6625 357.156C71.4418 356.158 74.6606 355.663 79.3295 355.663L85.9938 356.661C90.4397 357.549 95.9364 360.213 102.496 364.66C109.05 369.104 114.438 374.88 118.661 381.99C123.775 391.103 129.936 398.043 137.162 402.822C144.381 407.605 151.661 409.994 158.993 409.994C166.325 409.994 172.658 409.438 177.993 408.331C183.323 407.217 188.323 405.547 192.992 403.325C194.992 388.438 200.438 376.987 209.324 368.988C196.658 367.654 185.27 365.656 175.156 362.987C165.048 360.318 154.602 355.988 143.826 349.985C133.045 343.984 124.102 336.545 116.99 327.651C109.88 318.757 104.045 307.091 99.4926 292.651C94.9381 278.203 92.6603 261.534 92.6603 242.647C92.6603 215.76 101.441 192.867 118.996 173.98C110.772 153.759 111.548 131.095 121.328 105.982C127.772 103.981 137.33 105.482 149.995 110.483C162.663 115.487 171.937 119.765 177.829 123.316C183.72 126.868 188.44 129.87 191.996 132.317C212.667 126.539 233.999 123.651 255.998 123.651C277.995 123.651 299.33 126.539 320.002 132.317L332.669 124.318C341.339 118.982 351.559 114.094 363.338 109.651C375.116 105.208 384.114 103.984 390.34 105.985C400.336 131.099 401.23 153.763 393 173.983C410.555 192.872 419.339 215.764 419.339 242.651C419.339 261.541 417.061 278.266 412.506 292.818C407.955 307.373 402.07 319.044 394.842 327.821C387.622 336.6 378.62 343.983 367.844 349.988C357.065 355.985 346.621 360.324 336.508 362.985C326.396 365.654 315.009 367.659 302.342 368.994C313.89 378.99 319.667 394.763 319.667 416.323V495.992C319.667 499.771 320.218 502.824 321.33 505.158C322.448 507.491 324.223 509.098 326.667 509.993C329.121 510.88 331.277 511.435 333.171 511.656C335.065 511.879 337.781 511.991 341.338 511.991H416.004C442.446 511.991 465.061 502.601 483.831 483.823C502.61 465.045 511.999 442.43 511.999 415.988V95.9994C511.996 69.5562 502.607 46.939 483.832 28.1641Z" fill="black"/>
<path d="M101.333 372.667C99.7785 373.774 100 375.552 102 377.997C104.226 380.218 106.001 380.553 107.336 378.995C108.89 377.888 108.668 376.11 106.665 373.661C104.444 371.664 102.667 371.329 101.333 372.667ZM90.3356 364.333C89.6701 365.892 90.4477 367.227 92.6695 368.333C94.4453 369.448 95.8942 369.229 97.0022 367.67C97.6677 366.112 96.8901 364.777 94.6683 363.662C92.4465 362.994 91.0023 363.219 90.3356 364.333ZM111.669 385.669C109.666 386.776 109.666 388.781 111.669 391.666C113.669 394.559 115.554 395.335 117.335 393.999C119.336 392.442 119.336 390.331 117.335 387.663C115.559 384.781 113.669 384.107 111.669 385.669ZM123.338 400.663C121.337 402.445 121.778 404.548 124.671 407.001C127.334 409.661 129.557 409.996 131.335 407.992C133.115 406.218 132.67 404.109 130.002 401.664C127.339 399.002 125.116 398.666 123.338 400.663Z" fill="black"/>
</g>
<defs>
<clipPath id="clip0_2301_38">
<rect width="512" height="512" fill="white"/>
</clipPath>
</defs>
</svg>
