<svg width="512" height="512" viewBox="0 0 512 512" fill="none" xmlns="http://www.w3.org/2000/svg">
<g clip-path="url(#clip0_2301_44)">
<path d="M256 512C397.385 512 512 397.385 512 256C512 114.615 397.385 0 256 0C114.615 0 0 114.615 0 256C0 397.385 114.615 512 256 512Z" fill="black"/>
<path fill-rule="evenodd" clip-rule="evenodd" d="M256 64.5C147.575 64.5 59.6519 152.404 59.6519 260.848C59.6519 347.599 115.911 421.198 193.927 447.162C203.739 448.978 207.342 442.901 207.342 437.715C207.342 433.035 207.161 417.565 207.075 401.159C152.451 413.038 140.925 377.992 140.925 377.992C131.993 355.298 119.124 349.262 119.124 349.262C101.308 337.076 120.467 337.326 120.467 337.326C140.182 338.71 150.565 357.562 150.565 357.562C168.076 387.577 196.498 378.9 207.704 373.883C209.466 361.195 214.553 352.529 220.17 347.627C176.558 342.664 130.71 325.826 130.71 250.591C130.71 229.155 138.382 211.639 150.943 197.889C148.904 192.942 142.183 172.973 152.845 145.926C152.845 145.926 169.334 140.652 206.853 166.055C222.517 161.704 239.314 159.522 255.999 159.446C272.685 159.522 289.495 161.704 305.187 166.055C342.664 140.651 359.128 145.926 359.128 145.926C369.816 172.973 363.094 192.942 361.055 197.889C373.645 211.639 381.262 229.156 381.262 250.591C381.262 326.007 335.329 342.61 291.606 347.471C298.649 353.565 304.923 365.513 304.923 383.831C304.923 410.103 304.698 431.247 304.698 437.715C304.698 442.941 308.232 449.064 318.183 447.136C396.158 421.143 452.347 347.57 452.347 260.847C452.348 152.404 364.438 64.5 256 64.5Z" fill="white"/>
<path d="M134.02 346.411C133.588 347.389 132.051 347.681 130.654 347.011C129.228 346.37 128.431 345.039 128.892 344.061C129.314 343.058 130.851 342.778 132.274 343.448C133.699 344.09 134.512 345.434 134.02 346.411ZM141.974 355.283C141.037 356.15 139.205 355.747 137.964 354.375C136.678 353.007 136.44 351.174 137.389 350.295C138.354 349.428 140.129 349.835 141.415 351.203C142.701 352.587 142.952 354.404 141.974 355.283ZM149.715 366.59C148.511 367.428 146.543 366.644 145.327 364.898C144.123 363.152 144.123 361.056 145.355 360.218C146.571 359.38 148.511 360.136 149.744 361.866C150.944 363.64 150.944 365.736 149.715 366.59ZM160.32 377.516C159.243 378.703 156.951 378.383 155.274 376.763C153.556 375.182 153.08 372.934 154.157 371.746C155.249 370.558 157.554 370.892 159.244 372.498C160.949 374.08 161.467 376.341 160.32 377.516ZM174.952 383.86C174.476 385.397 172.269 386.095 170.046 385.442C167.823 384.769 166.372 382.968 166.82 381.416C167.28 379.866 169.5 379.139 171.738 379.838C173.958 380.507 175.412 382.295 174.952 383.86ZM191.022 385.035C191.076 386.654 189.19 387.997 186.856 388.026C184.509 388.08 182.608 386.769 182.582 385.174C182.582 383.539 184.427 382.212 186.773 382.17C189.107 382.126 191.022 383.428 191.022 385.035ZM205.974 382.492C206.253 384.07 204.631 385.693 202.313 386.125C200.033 386.544 197.925 385.566 197.633 384.001C197.35 382.382 199.001 380.759 201.278 380.34C203.599 379.936 205.679 380.885 205.974 382.492Z" fill="white"/>
</g>
<defs>
<clipPath id="clip0_2301_44">
<rect width="512" height="512" fill="white"/>
</clipPath>
</defs>
</svg>
