<svg width="513" height="512" viewBox="0 0 513 512" fill="none" xmlns="http://www.w3.org/2000/svg">
<g clip-path="url(#clip0_2298_33)">
<path d="M301.935 256C301.935 280.852 281.787 301 256.935 301C232.083 301 211.935 280.852 211.935 256C211.935 231.148 232.083 211 256.935 211C281.787 211 301.935 231.148 301.935 256Z" fill="black"/>
<path d="M332.935 120H180.935C147.849 120 120.935 146.914 120.935 180V332C120.935 365.086 147.849 392 180.935 392H332.935C366.021 392 392.935 365.086 392.935 332V180C392.935 146.914 366.021 120 332.935 120ZM256.935 331C215.58 331 181.935 297.355 181.935 256C181.935 214.645 215.58 181 256.935 181C298.29 181 331.935 214.645 331.935 256C331.935 297.355 298.29 331 256.935 331ZM342.935 185C334.65 185 327.935 178.285 327.935 170C327.935 161.715 334.65 155 342.935 155C351.22 155 357.935 161.715 357.935 170C357.935 178.285 351.22 185 342.935 185Z" fill="black"/>
<path d="M377.935 0H135.935C61.4974 0 0.935425 60.563 0.935425 135V377C0.935425 451.438 61.4984 512 135.935 512H377.935C452.373 512 512.935 451.437 512.935 377V135C512.935 60.562 452.372 0 377.935 0ZM422.935 332C422.935 381.625 382.56 422 332.935 422H180.935C131.31 422 90.9354 381.625 90.9354 332V180C90.9354 130.375 131.31 90 180.935 90H332.935C382.56 90 422.935 130.375 422.935 180V332Z" fill="black"/>
</g>
<defs>
<clipPath id="clip0_2298_33">
<rect width="512" height="512" fill="white" transform="translate(0.935425)"/>
</clipPath>
</defs>
</svg>
