<svg width="512" height="513" viewBox="0 0 512 513" fill="none" xmlns="http://www.w3.org/2000/svg">
<path d="M256 309C284.995 309 308.5 285.495 308.5 256.5C308.5 227.505 284.995 204 256 204C227.005 204 203.5 227.505 203.5 256.5C203.5 285.495 227.005 309 256 309Z" fill="black"/>
<path d="M256 6.5C117.929 6.5 6 118.429 6 256.5C6 394.571 117.929 506.5 256 506.5C394.071 506.5 506 394.571 506 256.5C506 118.429 394.071 6.5 256 6.5ZM410.458 320.04C409.258 343.808 402.579 367.246 385.258 384.383C367.769 401.683 344.22 408.129 320.223 409.317H191.778C167.778 408.129 144.232 401.687 126.743 384.383C109.421 367.246 102.743 343.808 101.543 320.04V192.96C102.743 169.192 109.422 145.754 126.743 128.616C144.232 111.316 167.781 104.87 191.778 103.683H320.222C344.222 104.87 367.768 111.313 385.257 128.616C402.579 145.754 409.257 169.192 410.457 192.96L410.458 320.04Z" fill="black"/>
<path d="M318.6 132.638C287.314 131.78 224.694 131.78 193.408 132.638C177.127 133.085 158.67 137.138 147.07 149.528C135.016 162.407 130.461 177.967 129.999 195.374C129.187 225.926 129.999 317.626 129.999 317.626C130.528 335.031 135.016 350.593 147.07 363.472C158.67 375.866 177.127 379.915 193.408 380.362C224.694 381.22 287.314 381.22 318.6 380.362C334.881 379.915 353.338 375.862 364.938 363.472C376.992 350.593 381.547 335.033 382.009 317.626V195.374C381.547 177.967 376.992 162.407 364.938 149.528C353.334 137.134 334.877 133.085 318.6 132.638ZM256 337.875C239.906 337.875 224.173 333.103 210.79 324.161C197.408 315.219 186.978 302.51 180.819 287.641C174.66 272.772 173.049 256.41 176.189 240.625C179.328 224.839 187.079 210.34 198.459 198.959C209.84 187.579 224.339 179.829 240.125 176.689C255.91 173.549 272.272 175.16 287.141 181.319C302.01 187.479 314.719 197.909 323.661 211.291C332.602 224.673 337.375 240.406 337.375 256.5C337.375 278.082 328.802 298.78 313.541 314.041C298.28 329.302 277.582 337.875 256 337.875ZM337.721 191.922C334.502 191.921 331.356 190.966 328.68 189.177C326.004 187.389 323.919 184.846 322.688 181.873C321.457 178.899 321.135 175.626 321.763 172.47C322.392 169.313 323.942 166.413 326.218 164.138C328.495 161.862 331.394 160.312 334.551 159.685C337.708 159.057 340.98 159.379 343.954 160.611C346.928 161.843 349.469 163.929 351.257 166.606C353.046 169.282 354 172.428 354 175.647C354 177.785 353.579 179.901 352.761 181.876C351.943 183.851 350.743 185.645 349.232 187.157C347.72 188.668 345.925 189.867 343.95 190.684C341.975 191.502 339.859 191.923 337.721 191.922Z" fill="black"/>
</svg>
