<svg width="512" height="512" viewBox="0 0 512 512" fill="none" xmlns="http://www.w3.org/2000/svg">
<g clip-path="url(#clip0_2298_2)">
<path d="M436.258 436.262H360.391V317.452C360.391 289.118 359.886 252.66 320.93 252.66C281.42 252.66 275.364 283.517 275.364 315.408V436.262H199.522V191.931H272.362V225.311H273.371C288.232 199.929 315.834 184.765 345.227 185.85C422.129 185.85 436.284 236.437 436.284 302.213L436.258 436.262ZM113.915 158.526C89.5931 158.526 69.8881 138.821 69.8881 114.499C69.8881 90.1768 89.5931 70.4719 113.915 70.4719C138.237 70.4719 157.942 90.1768 157.942 114.499C157.942 138.821 138.237 158.526 113.915 158.526ZM151.836 436.262H75.893V191.931H151.836V436.262ZM474.079 0.0286766H37.7699C17.1567 -0.198397 0.252304 16.3275 0 36.9407V475.041C0.252304 495.679 17.1567 512.205 37.7699 511.978H474.079C494.742 512.23 511.722 495.705 512 475.041V36.9155C511.697 16.2518 494.717 -0.274089 474.079 0.00344509" fill="black"/>
</g>
<defs>
<clipPath id="clip0_2298_2">
<rect width="512" height="512" fill="white"/>
</clipPath>
</defs>
</svg>
