<svg width="513" height="512" viewBox="0 0 513 512" fill="none" xmlns="http://www.w3.org/2000/svg">
<path d="M461.006 460.8V310.784C461.006 237.056 445.134 180.736 359.118 180.736C317.646 180.736 289.998 203.264 278.734 224.768H277.71V187.392H196.302V460.8H281.294V325.12C281.294 289.28 287.95 254.976 331.982 254.976C375.502 254.976 376.014 295.424 376.014 327.168V460.288H461.006V460.8ZM58.0622 187.392H143.054V460.8H58.0622V187.392ZM100.558 51.2C73.4222 51.2 51.4062 73.216 51.4062 100.352C51.4062 127.488 73.4222 150.016 100.558 150.016C127.694 150.016 149.71 127.488 149.71 100.352C149.71 73.216 127.694 51.2 100.558 51.2Z" fill="black"/>
</svg>
