<svg width="513" height="512" viewBox="0 0 513 512" fill="none" xmlns="http://www.w3.org/2000/svg">
<g clip-path="url(#clip0_2298_7)">
<path d="M256.935 0C115.572 0 0.935425 114.637 0.935425 256C0.935425 397.363 115.572 512 256.935 512C398.298 512 512.935 397.363 512.935 256C512.935 114.637 398.298 0 256.935 0ZM182.545 387H120.197V199.426H182.544L182.545 387ZM151.372 173.812H150.966C130.044 173.812 116.513 159.41 116.513 141.41C116.513 123.004 130.458 109 151.787 109C173.115 109 186.24 123.004 186.646 141.41C186.646 159.41 173.115 173.813 151.372 173.813V173.812ZM407.358 387H345.018V286.652C345.018 261.434 335.991 244.234 313.432 244.234C296.209 244.234 285.952 255.836 281.444 267.035C279.795 271.043 279.393 276.645 279.393 282.25V387H217.049C217.049 387 217.866 217.023 217.049 199.426H279.393V225.984C287.678 213.204 302.503 195.024 335.581 195.024C376.601 195.024 407.358 221.832 407.358 279.445V387Z" fill="black"/>
</g>
<defs>
<clipPath id="clip0_2298_7">
<rect width="512" height="512" fill="white" transform="translate(0.935425)"/>
</clipPath>
</defs>
</svg>
