<svg width="512" height="512" viewBox="0 0 512 512" fill="none" xmlns="http://www.w3.org/2000/svg">
<g clip-path="url(#clip0_601_87)">
<path d="M138.667 0C118.864 0 99.8721 7.86664 85.8694 21.8694C71.8666 35.8721 64 54.8638 64 74.6667V437.333C64 457.136 71.8666 476.128 85.8694 490.131C99.8721 504.133 118.864 512 138.667 512C158.47 512 177.461 504.133 191.464 490.131C205.467 476.128 213.333 457.136 213.333 437.333V74.6667C213.333 54.8638 205.467 35.8721 191.464 21.8694C177.461 7.86664 158.47 0 138.667 0ZM170.667 437.333C170.667 445.82 167.295 453.96 161.294 459.961C155.293 465.962 147.154 469.333 138.667 469.333C130.18 469.333 122.04 465.962 116.039 459.961C110.038 453.96 106.667 445.82 106.667 437.333V74.6667C106.667 66.1797 110.038 58.0404 116.039 52.0393C122.04 46.0381 130.18 42.6667 138.667 42.6667C147.154 42.6667 155.293 46.0381 161.294 52.0393C167.295 58.0404 170.667 66.1797 170.667 74.6667V437.333ZM373.333 0C353.531 0 334.539 7.86664 320.536 21.8694C306.533 35.8721 298.667 54.8638 298.667 74.6667V437.333C298.667 457.136 306.533 476.128 320.536 490.131C334.539 504.133 353.531 512 373.333 512C393.136 512 412.128 504.133 426.131 490.131C440.133 476.128 448 457.136 448 437.333V74.6667C448 54.8638 440.133 35.8721 426.131 21.8694C412.128 7.86664 393.136 0 373.333 0ZM405.333 437.333C405.333 445.82 401.962 453.96 395.961 459.961C389.96 465.962 381.82 469.333 373.333 469.333C364.846 469.333 356.707 465.962 350.706 459.961C344.705 453.96 341.333 445.82 341.333 437.333V74.6667C341.333 66.1797 344.705 58.0404 350.706 52.0393C356.707 46.0381 364.846 42.6667 373.333 42.6667C381.82 42.6667 389.96 46.0381 395.961 52.0393C401.962 58.0404 405.333 66.1797 405.333 74.6667V437.333Z" fill="black"/>
</g>
<defs>
<clipPath id="clip0_601_87">
<rect width="512" height="512" fill="white"/>
</clipPath>
</defs>
</svg>
