<svg width="512" height="512" viewBox="0 0 512 512" fill="none" xmlns="http://www.w3.org/2000/svg">
<g clip-path="url(#clip0_603_87)">
<path d="M256 0C114.837 0 0 114.837 0 256C0 397.163 114.837 512 256 512C397.163 512 512 397.163 512 256C512 114.837 397.163 0 256 0ZM256 469.333C138.368 469.333 42.6667 373.632 42.6667 256C42.6667 138.368 138.368 42.6667 256 42.6667C373.632 42.6667 469.333 138.368 469.333 256C469.333 373.632 373.632 469.333 256 469.333ZM192 170.667H234.667V341.333H192V170.667ZM277.333 170.667H320V341.333H277.333V170.667Z" fill="black"/>
</g>
<defs>
<clipPath id="clip0_603_87">
<rect width="512" height="512" fill="white"/>
</clipPath>
</defs>
</svg>
