<svg width="512" height="512" viewBox="0 0 512 512" fill="none" xmlns="http://www.w3.org/2000/svg">
<path d="M193.488 440.685C193.488 459.599 185.975 477.738 172.6 491.112C159.226 504.487 141.087 512 122.173 512C103.26 512 85.1205 504.487 71.7464 491.112C58.3724 477.738 50.8589 459.599 50.8589 440.685V71.3146C50.8589 52.4008 58.3724 34.2616 71.7464 20.8875C85.1205 7.51348 103.26 1.06267e-06 122.173 1.06267e-06C141.087 1.06267e-06 159.226 7.51348 172.6 20.8875C185.975 34.2616 193.488 52.4008 193.488 71.3146V440.685ZM461.13 440.685C461.13 459.599 453.617 477.738 440.242 491.112C426.868 504.487 408.729 512 389.815 512C370.902 512 352.762 504.487 339.388 491.112C326.014 477.738 318.501 459.599 318.501 440.685V71.3146C318.501 52.4008 326.014 34.2616 339.388 20.8875C352.762 7.51348 370.902 0 389.815 0C408.729 0 426.868 7.51348 440.242 20.8875C453.617 34.2616 461.13 52.4008 461.13 71.3146V440.685Z" fill="black"/>
</svg>
