<svg width="512" height="512" viewBox="0 0 512 512" fill="none" xmlns="http://www.w3.org/2000/svg">
<g clip-path="url(#clip0_558_128)">
<path d="M39.0399 38.8267L61.4398 19.4133C87.2532 -6.39999 129.067 -6.39999 154.88 19.4133C155.52 20.0533 194.987 71.4667 194.987 71.4667C219.307 97.0667 219.307 137.387 194.987 162.773L170.24 193.92C201.387 264.533 249.813 313.173 318.08 342.187L349.227 317.227C374.613 292.693 415.147 292.693 440.533 317.227C440.533 317.227 491.947 356.693 492.587 357.333C518.4 383.147 518.4 424.96 493.653 449.707L472.32 474.24C447.787 498.773 414.72 512.213 378.88 512.213C215.893 512.213 -0.000142425 296.107 -0.000142425 133.333C-0.000142425 97.7067 13.4399 64.4267 39.0399 39.04V38.8267ZM378.88 469.333C403.2 469.333 425.6 460.373 440.96 444.8L462.293 420.267C471.04 411.52 471.467 397.227 463.147 388.053C463.147 388.053 412.16 348.8 411.52 348.16C402.773 339.413 387.413 339.413 378.453 348.16C377.813 348.8 334.933 383.147 334.933 383.147C328.96 387.84 321.067 389.12 314.027 386.347C225.707 352.64 162.347 289.493 125.867 198.4C123.093 191.36 124.16 183.253 129.067 177.067C129.067 177.067 163.413 133.973 163.84 133.547C173.013 124.373 173.013 109.653 163.84 100.48C163.2 99.84 123.947 48.8533 123.947 48.8533C114.773 40.5333 100.48 40.7467 90.6665 50.56L68.2665 69.9734C51.8399 86.4 42.6665 108.8 42.6665 133.12C42.6665 281.6 251.093 469.333 378.88 469.333Z" fill="black"/>
</g>
<defs>
<clipPath id="clip0_558_128">
<rect width="512" height="512" fill="white" transform="matrix(-1 0 0 1 512 0)"/>
</clipPath>
</defs>
</svg>
