<svg width="512" height="512" viewBox="0 0 512 512" fill="none" xmlns="http://www.w3.org/2000/svg">
<g clip-path="url(#clip0_2301_10)">
<path d="M262.96 0C122.634 0 48.0063 89.924 48.0063 187.976C48.0063 233.45 73.4155 290.157 114.089 308.142C120.266 310.926 123.626 309.742 125.002 304.014C126.218 299.661 131.562 278.701 134.154 268.812C134.954 265.644 134.538 262.892 131.978 259.916C118.474 244.299 107.753 215.85 107.753 189.16C107.753 120.773 162.123 54.3704 254.64 54.3704C334.643 54.3704 390.614 106.341 390.614 180.68C390.614 264.684 346.164 322.799 288.401 322.799C256.432 322.799 232.623 297.709 240.175 266.668C249.295 229.706 267.184 189.961 267.184 163.303C267.184 139.398 253.68 119.621 226.094 119.621C193.549 119.621 167.148 151.847 167.148 195.113C167.148 222.602 176.876 241.163 176.876 241.163C176.876 241.163 144.683 371.217 138.698 395.506C128.586 436.628 140.074 503.223 141.067 508.951C141.675 512.119 145.227 513.111 147.211 510.519C150.379 506.359 189.293 450.836 200.205 410.706C204.173 396.082 220.462 336.783 220.462 336.783C231.183 356.144 262.128 372.369 295.089 372.369C393.142 372.369 463.993 286.189 463.993 179.24C463.641 76.7074 375.893 0 262.96 0Z" fill="black"/>
</g>
<defs>
<clipPath id="clip0_2301_10">
<rect width="512" height="512" fill="white"/>
</clipPath>
</defs>
</svg>
