<svg width="512" height="512" viewBox="0 0 512 512" fill="none" xmlns="http://www.w3.org/2000/svg">
<g clip-path="url(#clip0_2301_6)">
<path d="M442.182 0H69.8182C51.3013 0 33.5427 7.35582 20.4493 20.4493C7.35582 33.5427 0 51.3013 0 69.8182L0 442.182C0 460.699 7.35582 478.457 20.4493 491.551C33.5427 504.644 51.3013 512 69.8182 512H442.182C460.699 512 478.457 504.644 491.551 491.551C504.644 478.457 512 460.699 512 442.182V69.8182C512 51.3013 504.644 33.5427 491.551 20.4493C478.457 7.35582 460.699 0 442.182 0ZM280.698 327.273C260.829 327.273 242.182 316.538 235.782 304.349C235.782 304.349 225.105 346.705 222.865 354.88C214.895 383.738 191.505 412.655 189.673 415.011C189.387 415.393 188.995 415.683 188.546 415.845C188.097 416.007 187.611 416.034 187.147 415.922C186.682 415.811 186.261 415.566 185.935 415.218C185.608 414.87 185.391 414.434 185.309 413.964C184.815 410.298 178.851 373.847 185.862 344.145L209.455 243.956C205.474 234.782 203.491 224.865 203.636 214.865C203.636 187.636 219.433 167.302 239.098 167.302C255.796 167.302 263.884 179.84 263.884 194.909C263.884 211.695 253.178 236.829 247.651 260.131C243.025 279.622 257.425 295.535 276.742 295.535C311.651 295.535 334.924 250.793 334.924 197.789C334.924 157.527 307.811 127.36 258.444 127.36C202.705 127.36 167.942 168.931 167.942 215.273C167.942 231.302 172.684 242.589 180.073 251.316C183.476 255.331 183.971 256.96 182.72 261.556C181.847 264.96 179.811 273.193 178.967 276.305C178.817 277.302 178.43 278.248 177.837 279.063C177.245 279.878 176.465 280.539 175.564 280.99C174.663 281.44 173.666 281.668 172.659 281.652C171.651 281.637 170.662 281.38 169.775 280.902C144.087 270.545 132.131 242.415 132.131 210.822C132.131 158.604 176.175 96 263.505 96C333.673 96 379.869 146.764 379.869 201.28C379.869 273.455 339.782 327.273 280.698 327.273Z" fill="black"/>
</g>
<defs>
<clipPath id="clip0_2301_6">
<rect width="512" height="512" fill="white"/>
</clipPath>
</defs>
</svg>
