<svg width="512" height="512" viewBox="0 0 512 512" fill="none" xmlns="http://www.w3.org/2000/svg">
<g clip-path="url(#clip0_2301_2)">
<path d="M477.688 127.499C454.795 88.2788 423.742 57.2258 384.521 34.3338C345.301 11.4431 302.469 0 256.019 0C209.573 0 166.739 11.4431 127.519 34.3338C88.2928 57.2223 57.2397 88.2753 34.349 127.499C11.4523 166.725 0.00927734 209.556 0.00927734 256.003C0.00927734 307.783 14.119 354.79 42.3419 397.003C70.5637 439.235 107.564 470.455 153.343 490.677C152.454 466.9 153.899 447.234 157.674 431.679L190.677 292.336C185.119 281.444 182.342 267.899 182.342 251.669C182.342 232.784 187.116 217.006 196.673 204.336C206.231 191.668 217.896 185.335 231.675 185.335C242.783 185.335 251.337 189.001 257.34 196.333C263.343 203.669 266.336 212.89 266.336 224.004C266.336 230.888 265.052 239.28 262.496 249.169C259.941 259.06 256.61 270.504 252.499 283.505C248.388 296.503 245.441 306.898 243.665 314.669C240.556 328.222 243.11 339.833 251.333 349.507C259.555 359.171 270.448 364.011 284.004 364.011C307.781 364.011 327.279 350.79 342.506 324.347C357.728 297.897 365.336 265.785 365.336 228.009C365.336 198.893 355.947 175.224 337.164 157.007C318.385 138.783 292.219 129.667 258.66 129.667C221.111 129.667 190.719 141.724 167.496 165.835C144.273 189.949 132.662 218.785 132.662 252.339C132.662 272.341 138.329 289.123 149.661 302.674C153.438 307.118 154.662 311.895 153.327 317.01C152.882 318.345 151.995 321.677 150.66 327.007C149.332 332.337 148.439 335.789 147.997 337.341C146.221 344.452 141.996 346.674 135.329 344.005C118.22 336.901 105.217 324.563 96.3313 307.007C87.4417 289.451 82.9957 269.113 82.9957 246.008C82.9957 231.118 85.3856 216.23 90.1644 201.342C94.9384 186.449 102.386 172.063 112.495 158.172C122.609 144.279 134.72 132 148.832 121.338C162.938 110.672 180.107 102.118 200.33 95.6729C220.553 89.2281 242.329 86.0056 265.664 86.0056C297.225 86.0056 325.553 93.005 350.661 107.005C375.777 121.006 394.94 139.115 408.165 161.339C421.39 183.564 427.998 207.343 427.998 232.677C427.998 266.009 422.221 296.008 410.669 322.678C399.115 349.343 382.78 370.288 361.664 385.506C340.551 400.734 316.554 408.345 289.656 408.345C276.104 408.345 263.438 405.176 251.655 398.847C239.88 392.511 231.767 385.015 227.325 376.345C217.323 415.673 211.322 439.123 209.321 446.677C205.099 462.448 196.434 480.675 183.32 501.34C207.099 508.452 231.32 512 255.988 512C302.434 512 345.269 500.557 384.489 477.663C423.713 454.777 454.766 423.724 477.652 384.504C500.543 345.275 511.986 302.441 511.986 255.998C511.998 209.556 500.571 166.719 477.688 127.499Z" fill="black"/>
</g>
<defs>
<clipPath id="clip0_2301_2">
<rect width="512" height="512" fill="white"/>
</clipPath>
</defs>
</svg>
