<svg width="512" height="512" viewBox="0 0 512 512" fill="none" xmlns="http://www.w3.org/2000/svg">
<g clip-path="url(#clip0_601_104)">
<path d="M366.34 229.446L291.577 186.135L217.329 143.339C210.111 139.214 201.861 138.183 194.642 140.246C187.424 142.308 180.721 146.949 176.596 154.167C175.049 156.23 174.534 158.808 173.502 161.386C172.987 162.932 172.987 164.995 172.471 167.057V344.427C172.471 352.677 176.08 360.411 181.237 365.567C186.908 371.239 194.127 374.332 202.377 374.332C207.017 374.332 216.814 370.207 219.392 368.661L292.608 326.381H293.124L293.639 325.865L369.434 282.038C376.652 277.913 381.293 271.21 383.355 263.476C383.871 261.929 383.871 259.867 383.871 257.805C383.871 240.79 366.34 229.446 366.34 229.446ZM356.028 259.867L281.265 303.178C280.749 303.178 280.234 303.694 280.234 303.694L207.017 345.974C206.501 346.489 203.923 347.521 202.892 347.521C201.861 347.521 200.83 347.005 199.798 346.489C199.283 345.974 198.767 344.427 198.767 343.396V167.573C198.767 167.573 198.767 167.057 199.283 167.057C199.283 167.057 199.798 166.542 199.798 166.026C200.314 165.511 201.345 164.995 201.861 164.479H204.439C204.955 164.995 205.47 164.995 205.986 165.511L279.202 207.791C279.718 208.306 280.234 208.306 280.234 208.306H280.749L355.512 251.617C356.544 252.133 358.606 253.68 358.606 255.227C358.606 257.289 357.059 259.351 356.028 259.867Z" fill="#1B1B1B"/>
<path d="M436.979 75.279C387.48 25.2649 321.998 0 256.516 0C191.033 0 125.551 24.7492 75.5368 74.7633C25.5227 125.293 0.257812 190.775 0.257812 256.258C0.257812 321.74 25.0071 387.223 75.0212 437.237C125.035 487.251 190.518 512 256 512C321.482 512 386.965 487.251 436.979 437.237C486.993 387.223 511.742 321.74 511.742 256.258C511.742 190.775 486.993 125.293 436.979 75.279ZM418.933 418.675C374.075 463.533 315.295 486.22 256.516 486.22C197.736 486.22 138.957 463.533 94.0987 418.675C48.7251 373.817 26.5539 315.037 26.5539 256.258C26.5539 197.478 49.2407 138.699 94.0987 93.8409C138.957 48.9829 197.736 26.2961 256.516 26.2961C315.295 26.2961 374.075 48.9829 418.933 93.8409C463.791 138.699 486.477 197.478 486.477 256.258C486.477 315.037 464.306 373.817 418.933 418.675Z" fill="#1B1B1B"/>
</g>
<defs>
<clipPath id="clip0_601_104">
<rect width="512" height="512" fill="white"/>
</clipPath>
</defs>
</svg>
