<svg width="512" height="512" viewBox="0 0 512 512" fill="none" xmlns="http://www.w3.org/2000/svg">
<path d="M480 464C477.028 464.001 474.115 463.174 471.587 461.612C469.059 460.05 467.016 457.814 465.688 455.156C436.064 395.908 408.016 339.828 256 336.188V448C256 451.111 255.092 454.154 253.39 456.757C251.687 459.36 249.262 461.411 246.412 462.657C243.562 463.904 240.41 464.293 237.342 463.776C234.275 463.259 231.424 461.859 229.14 459.748L21.14 267.748C17.86 264.736 16 260.468 16 256C16 251.532 17.86 247.264 21.14 244.248L229.14 52.248C231.428 50.1392 234.279 48.7414 237.348 48.2251C240.416 47.7087 243.568 48.0961 246.42 49.34C249.268 50.5889 251.691 52.6404 253.392 55.2438C255.094 57.8473 256 60.89 256 64V176.188C477.608 181.688 496 302.608 496 448C495.997 451.605 494.778 455.104 492.541 457.931C490.304 460.758 487.18 462.748 483.672 463.58C482.452 463.86 481.22 464 480 464ZM55.592 256L224 411.452V320C224 311.156 231.156 304 240 304C372.672 304 429.156 341.032 462.296 385.548C454.812 276.36 416.752 208 240 208C231.156 208 224 200.844 224 192V100.548L55.592 256Z" fill="black"/>
</svg>
