<svg width="512" height="512" viewBox="0 0 512 512" fill="none" xmlns="http://www.w3.org/2000/svg">
<path fill-rule="evenodd" clip-rule="evenodd" d="M254.54 8.05811C117.814 8.05811 6.74023 119.136 6.74023 255.861C6.74023 392.586 117.815 503.657 254.54 503.657C391.265 503.657 502.34 392.587 502.34 255.861C502.34 119.135 391.266 8.05811 254.54 8.05811ZM402.88 335.958C401.187 340.073 393.2 345.877 365.13 350.238C362.71 350.716 361.985 353.622 360.532 359.918C360.082 362.203 359.517 364.464 358.839 366.692C358.112 368.866 356.902 369.837 354.725 369.837H354.482C352.352 369.788 350.237 369.461 348.191 368.867C342.599 367.847 336.934 367.282 331.251 367.177C327.198 367.148 323.149 367.47 319.151 368.142C310.681 369.598 303.664 374.677 295.921 380.002C285.031 387.747 273.657 395.731 255.991 395.731H252.12C234.454 395.731 223.08 387.747 212.191 380.001C204.69 374.676 197.43 369.597 188.961 368.141C184.963 367.47 180.915 367.148 176.861 367.178C171.165 367.277 165.493 367.924 159.921 369.112C157.856 369.617 155.75 369.94 153.628 370.076C152.642 370.184 151.65 369.923 150.846 369.342C150.041 368.761 149.481 367.902 149.273 366.932C148.547 364.512 148.063 362.092 147.578 359.918C146.368 354.108 145.401 350.717 142.981 350.238C114.909 345.877 106.924 340.073 105.23 335.958C104.956 335.347 104.792 334.692 104.746 334.023C104.73 333.265 104.992 332.526 105.482 331.947C105.972 331.368 106.657 330.988 107.408 330.879C150.483 323.619 169.842 279.575 170.568 277.64H170.811C173.472 272.315 173.956 267.475 172.262 263.846C169.358 256.825 159.678 253.68 153.387 251.746C151.912 251.334 150.458 250.848 149.031 250.289C136.205 245.21 135.237 240.131 135.721 237.465C136.689 232.871 142.497 229.72 147.578 229.72C148.748 229.704 149.907 229.954 150.966 230.452C156.774 233.111 161.856 234.56 166.212 234.56C172.504 234.56 175.165 231.9 175.407 231.662C175.407 228.756 175.165 225.612 174.924 222.46C173.714 202.137 172.02 176.728 178.554 162.208C197.913 118.889 238.81 115.505 250.909 115.505H256.959C269.059 115.505 310.198 118.889 329.557 162.208C336.091 176.728 334.397 202.138 333.187 222.46V223.431C332.945 226.091 332.703 228.996 332.703 231.661C332.945 231.901 335.365 234.321 340.931 234.56C345.287 234.32 350.127 232.871 355.451 230.452C356.904 229.828 358.467 229.498 360.048 229.481C361.81 229.509 363.545 229.922 365.13 230.691H365.372C369.486 232.14 372.39 235.291 372.39 238.436C372.631 241.341 370.211 245.935 359.08 250.289C357.87 250.775 356.418 251.26 354.966 251.746C348.432 253.68 338.752 256.825 335.848 263.846C334.155 267.476 334.638 272.316 337.3 277.64H337.542C338.268 279.575 357.628 323.619 400.702 330.879C401.453 330.988 402.138 331.368 402.628 331.947C403.119 332.526 403.38 333.265 403.364 334.023C403.318 334.692 403.155 335.347 402.88 335.958Z" fill="black"/>
</svg>
