<svg width="512" height="512" viewBox="0 0 512 512" fill="none" xmlns="http://www.w3.org/2000/svg">
<g clip-path="url(#clip0_2301_30)">
<path d="M383.594 0H128C57.7016 0 0 57.7016 0 128.406V384C0 454.298 57.7016 512 128 512H383.594C454.298 512 512 454.298 512 383.594V128.406C512 57.7016 454.298 0 383.594 0ZM409.194 340.114C407.975 342.552 405.13 344.99 400.254 347.429C393.752 350.679 383.594 353.117 370.184 355.149C368.965 355.556 367.746 356.368 366.933 357.587C366.121 358.806 365.714 361.651 364.902 365.308L364.495 367.34C364.089 368.965 363.683 370.997 363.276 372.622C362.464 374.654 361.244 375.873 358.806 375.873C357.587 375.873 355.556 375.873 352.305 375.06C347.835 374.248 342.146 373.029 334.832 373.029C330.362 373.029 326.298 373.435 322.235 374.248C313.702 375.873 305.981 380.749 297.854 386.438C286.883 394.159 274.692 403.098 256 403.098H252.343C233.651 403.098 221.46 394.159 210.083 386.438C202.362 381.156 195.048 375.873 186.108 374.248C182.044 373.435 177.575 373.029 173.511 373.029C166.197 373.029 160.508 374.248 156.444 375.06H156.038C154.006 375.467 151.568 375.873 149.537 375.873C147.098 375.873 145.473 375.06 144.66 372.622C143.035 369.778 142.222 367.746 141.816 365.714L141.41 364.495C140.597 361.244 140.19 358.4 138.971 356.775C138.565 355.556 137.346 354.743 136.127 354.743C122.717 352.711 112.559 349.867 105.651 347.022C101.181 344.991 97.9302 342.552 96.7111 340.114C96.3048 339.302 96.3048 338.489 96.3048 338.083V337.27C97.9302 335.644 98.7429 334.832 99.9619 334.425C110.527 332.8 120.279 328.737 128.813 323.048C136.127 318.578 143.035 312.483 149.13 305.168C159.695 292.978 164.978 281.194 165.79 279.162V278.756C168.635 273.473 169.041 268.597 167.416 264.94C164.165 257.625 154.413 254.375 147.505 252.343L146.286 251.937C145.067 251.53 143.848 251.124 143.035 250.717C138.159 248.686 134.502 246.654 132.47 244.622C129.219 241.778 128.813 238.933 129.219 237.308C129.625 235.276 131.251 232.838 134.095 231.213C137.752 229.181 142.629 228.368 145.473 229.994C154.819 234.463 162.54 235.683 168.229 232.838C169.854 232.025 170.667 230.4 170.667 228.775C170.667 226.337 170.26 223.898 170.26 221.46V221.054C169.041 199.924 167.416 173.511 173.917 158.476C178.794 147.911 184.889 138.971 192.61 131.657C199.111 125.562 206.425 120.686 214.959 117.029C229.587 110.527 242.997 109.714 249.905 109.714H256C262.908 109.714 276.317 110.527 290.946 117.029C299.479 120.686 306.794 125.562 313.295 131.657C321.016 138.971 327.517 147.911 331.987 158.476C338.895 173.511 336.864 199.924 335.644 220.648V221.867C335.644 223.492 335.238 224.711 335.238 226.337V228.368C335.238 229.994 336.051 231.619 337.676 232.432C339.302 233.244 341.333 233.651 343.365 233.651H344.178C348.648 233.244 353.524 232.025 358.806 229.587C360.838 228.775 362.87 228.775 363.683 228.775C365.714 228.775 367.34 229.181 369.371 229.994C373.841 231.619 377.092 234.87 377.092 238.121C377.092 239.34 376.686 241.371 374.248 243.81C371.81 246.248 368.152 248.279 362.87 250.717C362.057 251.124 360.838 251.53 360.025 251.53L358.806 251.937C352.305 253.968 342.146 257.219 338.895 264.533C337.27 268.19 337.676 273.067 340.521 278.756C340.521 279.162 340.521 279.162 340.927 279.568C344.584 287.695 364.902 327.517 406.756 334.425C408.381 334.832 409.6 336.051 409.6 338.083C409.6 338.895 409.194 339.708 409.194 340.114Z" fill="black"/>
</g>
<defs>
<clipPath id="clip0_2301_30">
<rect width="512" height="512" fill="white"/>
</clipPath>
</defs>
</svg>
