<svg width="512" height="512" viewBox="0 0 512 512" fill="none" xmlns="http://www.w3.org/2000/svg">
<path d="M67.9892 422.592C73.8132 448.192 80.0639 458.795 113.643 453.291C123.413 451.669 135.616 449.643 150.635 452.117C175.552 456.256 241.429 540.181 335.104 466.155C353.387 453.355 363.371 446.272 398.848 453.227C414.336 456.235 434.197 453.056 443.904 422.592C536.469 405.931 516.587 354.88 488.853 350.421C440.64 342.549 408.661 292.779 405.248 276.907C408.64 274.816 416.064 272.235 420.8 270.613C498.987 243.563 455.467 177.728 402.304 198.037C405.781 142.571 406.784 98.1334 361.408 55.5308C313.173 10.3894 238.656 8.3201 189.995 29.6748C105.173 66.7521 105.835 138.581 109.611 198.891C75.7972 185.963 52.8639 204.587 49.1732 223.68C43.5839 253.781 72.3412 263.893 89.4932 269.931C95.4879 272.043 105.493 275.563 107.008 276.693C105.152 278.848 94.3999 326.656 30.7199 347.776C18.5599 351.808 7.06123 355.627 2.06923 366.763C-0.8961 373.419 -0.661434 380.885 2.83723 388.928C11.4346 408.896 39.3812 417.472 67.9892 422.592ZM134.443 294.229C148.523 265.856 130.048 250.389 100.139 239.851C93.8239 237.632 82.0906 233.493 80.5546 229.696C81.0879 228.352 85.2906 225.664 89.2799 225.664C90.5172 225.749 94.0586 227.115 96.4052 227.989C197.568 266.304 78.2079 113.344 202.816 58.9014C240.981 42.1761 301.867 43.4988 339.541 78.8054C399.936 135.467 352.427 218.197 378.624 230.123C397.269 238.592 415.104 225.557 421.547 225.365C426.56 225.365 430.933 228.352 431.403 229.419C431.488 233.195 418.283 237.76 410.389 240.491C373.909 253.099 362.517 268.203 383.147 305.813C398.699 334.187 431.595 369.493 475.157 380.203C444.587 397.867 421.376 382.315 414.592 409.024C411.093 423.211 408.853 422.72 404.992 421.973C296.917 400.811 304.299 513.067 194.453 439.701C156.971 414.677 149.653 417.344 100.907 422.976C98.8586 414.933 97.5359 406.229 94.6986 400.981C86.9972 386.731 58.4959 393.941 36.1599 379.627C80.9812 364.288 111.296 346.24 134.443 294.229Z" fill="black"/>
</svg>
