<svg width="512" height="512" viewBox="0 0 512 512" fill="none" xmlns="http://www.w3.org/2000/svg">
<g clip-path="url(#clip0_2301_14)">
<path d="M256 0C114.637 0 0 114.637 0 256C0 397.363 114.637 512 256 512C397.363 512 512 397.363 512 256C512 114.637 397.363 0 256 0ZM384.43 195.873V230.536C368.085 230.542 352.204 227.339 337.226 221.02C327.653 216.985 318.641 211.729 310.415 205.384L310.661 312.077C310.558 336.102 301.053 358.675 283.85 375.678C269.85 389.518 252.11 398.319 232.882 401.168C228.324 401.842 223.723 402.181 219.116 402.18C198.533 402.18 178.992 395.512 163.007 383.21C159.98 380.879 157.1 378.363 154.383 375.678C135.739 357.251 126.125 332.277 127.744 306.004C128.979 286.005 136.986 266.932 150.334 251.983C167.994 232.201 192.7 221.221 219.116 221.221C223.766 221.221 228.364 221.57 232.882 222.239V270.707C228.487 269.255 223.888 268.516 219.259 268.517C195.125 268.517 175.6 288.207 175.961 312.359C176.19 327.812 184.631 341.32 197.081 348.766C203.079 352.363 209.863 354.444 216.846 354.828C222.277 355.13 227.717 354.408 232.882 352.701C250.125 347.005 262.564 330.809 262.564 311.707L262.621 240.26V109.82H310.357C310.397 114.46 310.872 119.086 311.775 123.637C315.378 141.738 325.581 157.442 339.781 168.148C352.163 177.487 367.581 183.023 384.292 183.023C384.303 183.023 384.441 183.023 384.429 183.012V195.873H384.43Z" fill="black"/>
</g>
<defs>
<clipPath id="clip0_2301_14">
<rect width="512" height="512" fill="white"/>
</clipPath>
</defs>
</svg>
