<svg width="512" height="512" viewBox="0 0 512 512" fill="none" xmlns="http://www.w3.org/2000/svg">
<g clip-path="url(#clip0_2301_18)">
<path d="M456.675 0H55.3252C24.771 0 0 24.771 0 55.3252V456.675C0 487.229 24.771 512 55.3252 512H456.675C487.229 512 512 487.229 512 456.675V55.3252C512 24.771 487.229 0 456.675 0ZM413.935 223.039C381.523 223.039 351.488 212.671 326.967 195.071V322.093C326.967 385.538 275.357 437.148 211.922 437.148C187.41 437.148 164.677 429.417 145.989 416.292C116.324 395.467 96.8765 361.017 96.8765 322.093C96.8765 258.657 148.486 207.047 211.922 207.047C217.185 207.047 222.349 207.477 227.423 208.166V271.981C222.519 270.443 217.325 269.554 211.922 269.554C182.946 269.554 159.383 293.126 159.383 322.093C159.383 342.269 170.82 359.798 187.55 368.598C194.842 372.444 203.122 374.641 211.922 374.641C240.228 374.641 263.311 352.127 264.36 324.07L264.46 73.5738H326.967C326.967 78.9874 327.496 84.2812 328.445 89.4252C332.86 113.247 346.993 133.673 366.57 146.448C380.214 155.338 396.475 160.532 413.935 160.532V223.039Z" fill="black"/>
</g>
<defs>
<clipPath id="clip0_2301_18">
<rect width="512" height="512" fill="white"/>
</clipPath>
</defs>
</svg>
