<svg width="512" height="512" viewBox="0 0 512 512" fill="none" xmlns="http://www.w3.org/2000/svg">
<g clip-path="url(#clip0_73_1198)">
<path d="M255.981 440.996H255.845C240.395 440.891 103.817 439.645 65.1221 429.18C38.0791 421.91 16.7321 400.586 9.44213 373.54C-0.682866 335.526 -0.0378663 262.344 0.0321337 256.499C-0.0338663 250.683 -0.686866 176.894 9.41213 138.569C9.42213 138.534 9.43113 138.495 9.44213 138.46C16.6491 111.722 38.4781 89.7369 65.0561 82.4479C65.1221 82.4279 65.1921 82.4129 65.2591 82.3939C103.517 72.3399 240.364 71.1089 255.845 71.0039H256.122C271.61 71.1089 408.552 72.3559 446.892 82.8359C473.864 90.0859 495.196 111.383 502.505 138.395C513.009 176.746 512.036 250.695 511.931 256.938C512.005 263.086 512.618 335.613 502.551 373.816C502.544 373.856 502.532 373.891 502.524 373.926C495.231 400.973 473.888 422.297 446.814 429.574C446.778 429.586 446.739 429.594 446.704 429.606C408.45 439.656 271.599 440.886 256.122 440.996H255.982H255.981ZM48.0751 148.828C39.1851 182.656 40.0251 255.504 40.0321 256.238V256.766C39.7671 276.969 40.7001 335.476 48.0791 363.188C51.6571 376.458 62.1851 386.968 75.5361 390.558C104.086 398.281 215.326 400.711 255.981 400.996C296.743 400.711 408.146 398.348 436.485 390.934C449.794 387.332 460.286 376.856 463.888 363.57C471.274 335.453 472.2 277.23 471.931 257.156C471.931 256.946 471.931 256.734 471.935 256.524C472.302 236.078 471.579 176.887 463.923 148.954C463.915 148.927 463.908 148.899 463.903 148.871C460.31 135.543 449.778 125.031 436.427 121.441C408.153 113.711 296.735 111.289 255.981 111.004C215.247 111.289 103.954 113.649 75.5281 121.054C62.4311 124.688 51.6651 135.574 48.0751 148.828ZM205.001 336.996V175L345.001 256L205.001 336.996Z" fill="black"/>
</g>
<defs>
<clipPath id="clip0_73_1198">
<rect width="512" height="512" fill="white"/>
</clipPath>
</defs>
</svg>
