<svg width="512" height="512" viewBox="0 0 512 512" fill="none" xmlns="http://www.w3.org/2000/svg">
<g clip-path="url(#clip0_73_1202)">
<path d="M220.496 297.297L291.502 256.101L220.496 214.703V297.297Z" fill="black"/>
<path d="M256 0C205.368 0 155.873 15.0141 113.774 43.1438C71.6751 71.2734 38.863 111.255 19.487 158.033C0.11092 204.811 -4.95873 256.284 4.91908 305.943C14.7969 355.602 39.1785 401.217 74.9808 437.019C110.783 472.822 156.398 497.203 206.057 507.081C255.716 516.959 307.189 511.889 353.967 492.513C400.745 473.137 440.727 440.325 468.856 398.226C496.986 356.127 512 306.632 512 256C512 188.105 485.029 122.99 437.019 74.9807C389.01 26.9714 323.896 0 256 0ZM390.737 301.305C390.741 308.001 389.426 314.632 386.867 320.819C384.308 327.006 380.555 332.628 375.822 337.364C371.089 342.1 365.469 345.857 359.284 348.421C353.098 350.984 346.468 352.303 339.773 352.303H172.227C165.532 352.303 158.902 350.984 152.717 348.421C146.531 345.857 140.911 342.1 136.178 337.364C131.446 332.628 127.692 327.006 125.133 320.819C122.574 314.632 121.259 308.001 121.263 301.305V210.695C121.259 203.999 122.574 197.368 125.133 191.181C127.692 184.994 131.446 179.372 136.178 174.636C140.911 169.9 146.531 166.143 152.717 163.579C158.902 161.016 165.532 159.697 172.227 159.697H339.773C346.468 159.697 353.098 161.016 359.284 163.579C365.469 166.143 371.089 169.9 375.822 174.636C380.555 179.372 384.308 184.994 386.867 191.181C389.426 197.368 390.741 203.999 390.737 210.695V301.305Z" fill="black"/>
</g>
<defs>
<clipPath id="clip0_73_1202">
<rect width="512" height="512" fill="white"/>
</clipPath>
</defs>
</svg>
