<svg width="512" height="513" viewBox="0 0 512 513" fill="none" xmlns="http://www.w3.org/2000/svg">
<path d="M492.044 106.976C473.562 85.0063 439.44 76.0447 374.274 76.0447H137.721C71.0639 76.0447 36.3636 85.5844 17.9514 108.975C0 131.78 0 165.382 0 211.888V300.529C0 390.626 21.2992 436.37 137.721 436.37H374.275C430.787 436.37 462.101 428.463 482.36 409.074C503.136 389.192 512 356.73 512 300.529V211.888C512 162.844 510.611 129.043 492.044 106.976ZM328.706 268.446L221.288 324.586C218.771 325.903 215.956 326.549 213.117 326.46C210.277 326.371 207.508 325.551 205.078 324.079C202.649 322.607 200.639 320.533 199.246 318.058C197.852 315.582 197.12 312.789 197.122 309.948V198.028C197.122 195.191 197.853 192.402 199.244 189.93C200.635 187.458 202.639 185.385 205.063 183.913C207.488 182.44 210.251 181.617 213.086 181.522C215.921 181.427 218.733 182.064 221.25 183.371L328.668 239.15C331.349 240.542 333.596 242.642 335.167 245.223C336.737 247.804 337.569 250.766 337.573 253.786C337.577 256.807 336.752 259.771 335.189 262.356C333.625 264.941 331.383 267.047 328.706 268.446Z" fill="black"/>
</svg>
